<svg xmlns="http://www.w3.org/2000/svg" version="1.1" xmlns:xlink="http://www.w3.org/1999/xlink" xmlns:svgjs="http://svgjs.dev/svgjs" width="1500" height="1500" viewBox="0 0 1500 1500"><rect width="1500" height="1500" fill="#ffffff"></rect><g transform="matrix(0.6666666666666666,0,0,0.6666666666666666,250.00007343750008,187.66666666666674)"><svg viewBox="0 0 320 360" data-background-color="#ffffff" preserveAspectRatio="xMidYMid meet" height="1687" width="1500" xmlns="http://www.w3.org/2000/svg" xmlns:xlink="http://www.w3.org/1999/xlink"><g id="tight-bounds" transform="matrix(1,0,0,1,0.000023499999997511622,0)"><svg viewBox="0 0 320 360" height="360" width="320"><g><svg></svg></g><g><svg viewBox="0 0 320 360" height="360" width="320"><g><path transform="translate(-74.99272,-51.79039) scale(4.65793,4.65793)" d="M20.6 59.9l0.8 1-0.4-1.3c-0.1-0.6-0.8 0.1-0.4 0.3M21.5 59.3c0.3 0.5 0.6 1 0.6 1.5 0 0.7 0.6 1 1.1 1.2-0.7-0.8-1.1-3-1.7-2.7M59.9 16.9c1.7 0 3.3-0.2 5.1 0.2 4.4 1.1 8.1 3.3 10.6 6.4l7 11.2c0.3 2.8 0.9 5.9 0.8 9.3 0.7 0 0.6-1 1.4-1.2-0.8 2-1.2 4.5-1.4 7.4-0.5-1.6 0-4 0.1-5.3-0.7 1.1-1.1 0.3-1.1-0.2 0.1-0.8-0.3-0.7-0.6-1-1.1-1-1.8-2.1-2.6-3.8 0.5-1.3 0.6-3.2-1-4.2-0.5-0.3-1.1-0.8-1.4-1.6-0.4-1.1-1.1-2.4-0.9-4.1 0.1-0.5-1.5 1.1-2.4 0.4-3.9-2.7-7.8-5.8-12.5-8.4-2.5 0-4.3-0.9-5.2-2-0.8-1-0.2-2.3 1-2.4 0.7 0 1.5-0.2 2.1 0.2 0.1-0.4 0.5-0.9 1-0.9M50 14.6l0.2 0.1c1 0.2 1.5 1.6 2.6 1.1 0 0.7 0.1 1.4-0.1 1.9-0.3 0.8-1.2 0.8-1.9 0.8-6.7-0.4-10.6 2.4-14.7 4.8-1.1 0.7-2.3 1.2-3.2 2.1-4.3 4-9 7.7-10.1 15.1l-0.9 8.2c-0.1 0.9-1.1 1.8-0.9 2.9l0.7 4.9c-0.7-0.7-1.1 0.2-0.9 0.6 0.1 0.3 0.5 1.3 1.1 0.4 0.8 1.5 1.6 4.4 2.7 5.7 3.4 4 7.8 7.6 11.4 11.2 0.9-0.2 1.6-0.2 1.8-0.8 0.3 0.6-0.3 1.2-0.8 1.3 1.6 1 3.4 1.9 5.8 2.1 3.1 0.2 6 0.7 8.7 1.4 1.4-0.4 2.8-0.6 4.3-0.7 0.5 0 0.8-0.8 1.4-1l0.1-1c0.6 0.9 0.5-0.3 0.1-0.9 0.7 0.6 0.9 1.1 1.2 1.5 0-0.3 0.8-1.4 0.8-0.1l0.2-1.3c0.3-0.2 0.4 1.1 0.7 0.2 0.3-0.9 0.9-0.2 1.5-0.5-0.2 0.4-0.1 1.2 0.6 0.7l0.8-0.7c0.5 1.2 1.3 0.7 1.7 0.5 4.4-2.8 8.8-6.1 13-9.4l-0.1 1.3 0.5-1.6c0.5 0.5 0.9 0.1 1.1-0.2 0.6-1 1.4-2 2.7-2.9-1.6 4.3-3.5 7.7-5.9 10.5l-1 1.2c0 0.7-0.2 1.6-1 1.7-0.4 0.1-1.2-0.2-1.8 0.4-0.3 0.4 0.7 1.2-0.1 0.6-0.7-0.5-1.4 0-2.2 0.2-0.6 0.2 0.4 0.8 0.6 1.2 0.2 0.4 0.4 0.8 0.3 1.3l-1.1-1.2c-1.3 0.7-2.1 2-3.2 3-0.5 0.4-0.3 1.1-0.3 1.7-0.7 0-1.5-0.2-1.9 0.2-0.3 0.4-0.2 1-0.2 1.6-1-0.1-1.1-1.6-2-1.3-0.9 0.2-1.9 0.3-2.7 0.8 0.6 1.2-1 0.5-0.8 0.7-1.5-0.9-2.8-1.6-4.4-1-3.4-1.1-7.6-0.6-10.7-0.2 0-0.5 0.1-1-0.1-1.1-0.2 0.5-0.8 0.3-0.7 0.3-1.9-1.3-3.8-2.1-5.8-3.2-1.8 0.2-3.5-0.7-4-1.2-1.4-1.3-3-0.6-4.3-0.9-2.8-0.7-3.8-3.6-4.1-5.6-0.2-1-1-1.4-1.3-1.3-1.3-4.2-3.3-8-4.9-11.9-0.4-1-0.3-2-0.3-3.1 0.5 0.2 1 0.1 0.9-0.6-0.5-3.3-1.7-5.8-3-8.2 0.7-3.4 0.8-7.4 2.4-10.4 1.4-2.7 4-4.1 5.8-6.4 0.6-0.8 0.6-1.9 1.2-2.6 2-2 4-4.1 6.2-5.9 1-0.8 2.2 0 3.7-0.3 0.5-1.8 2.5-3.4 4.4-2.9 0.8 0.2 2.4-1.9 2.9-2.1 0.8-0.3 0.4 0.8 0.4 1.5 1.9-1.5 4.5-2.3 6.9-3.2" fill="#8b3c7f" fill-rule="nonzero" stroke="none" stroke-width="1" stroke-linecap="butt" stroke-linejoin="miter" stroke-miterlimit="10" stroke-dasharray="" stroke-dashoffset="0" font-family="none" font-weight="none" font-size="none" text-anchor="none" style="mix-blend-mode: normal" data-fill-palette-color="tertiary"></path></g><g transform="matrix(1,0,0,1,64,112.02555219656018)"><svg viewBox="0 0 192 135.94889560687963" height="135.94889560687963" width="192"><g><svg viewBox="0 0 192 135.94889560687963" height="135.94889560687963" width="192"><g><svg viewBox="0 0 192 135.94889560687963" height="135.94889560687963" width="192"><g transform="matrix(1,0,0,1,0,82.17002582800984)"><svg viewBox="0 0 192 53.77886977886978" height="53.77886977886978" width="192"><g id="textblocktransform"><svg viewBox="0 0 192 53.77886977886978" height="53.77886977886978" width="192" id="textblock"><g><svg viewBox="0 0 192 53.77886977886978" height="53.77886977886978" width="192"><g transform="matrix(1,0,0,1,0,0)"><svg width="192" viewBox="0.55 -29.45 122.09 34.2" height="53.77886977886978" data-palette-color="#8b3c7f"><path d="M34.85 1.25L34.85 1.25Q33.3 1.25 32.6-0.13 31.9-1.5 31.9-3.63 31.9-5.75 32.8-9.45L32.8-9.45Q31.05-9.6 26.85-10.15L26.85-10.15Q19.9-1.55 15.3 1.8L15.3 1.8Q11.35 4.75 7.1 4.75L7.1 4.75Q4.4 4.75 2.48 3.4 0.55 2.05 0.55-0.6L0.55-0.6Q0.55-1.1 0.8-1.53 1.05-1.95 1.3-1.75 1.55-1.55 1.55-0.6L1.55-0.6Q1.55 1.1 2.88 1.95 4.2 2.8 6.1 2.8L6.1 2.8Q10.2 2.8 14.18 0.13 18.15-2.55 25-10.35L25-10.35Q17.65-11.25 15.3-11.25L15.3-11.25Q8.95-11.25 7.45-7.1L7.45-7.1Q7.25-6.55 7.25-6.08 7.25-5.6 7.45-5.23 7.65-4.85 7.53-4.63 7.4-4.4 7.1-4.42 6.8-4.45 6.6-4.75L6.6-4.75Q6.05-5.7 6.05-6.6L6.05-6.6Q6.05-9.7 7.18-11.18 8.3-12.65 9.8-13.05L9.8-13.05Q11.6-13.55 14-13.55 16.4-13.55 26.1-11.65L26.1-11.65Q28.8-14.75 34.3-21.63 39.8-28.5 39.8-28.6L39.8-28.6 39.85-28.6Q39.9-28.65 40.1-28.75L40.1-28.75Q41.3-29.45 42.7-29.45L42.7-29.45Q43.2-29.45 43.2-28.95L43.2-28.95Q43.2-28.9 43.15-28.83 43.1-28.75 43.05-28.63 43-28.5 42.95-28.4L42.95-28.4Q38.15-20.45 35.5-10.5L35.5-10.5 35.35-10.15 36.6-10.1Q37-10.05 38.02-10.05 39.05-10.05 40.2-10.53 41.35-11 41.68-11.55 42-12.1 42.25-11.8 42.5-11.5 42.3-11.15L42.3-11.15Q41.75-10.15 40.35-9.7L40.35-9.7Q39.15-9.2 37.98-9.2 36.8-9.2 36.45-9.2L36.45-9.2 35.1-9.25Q34.15-4.9 34.15-2.33 34.15 0.25 35.55 0.25L35.55 0.25Q36.9 0.25 39.75-1.9 42.6-4.05 45.1-7.45L45.1-7.45Q45.25-7.65 45.5-7.55 45.75-7.45 45.75-7.3 45.75-7.15 45.68-6.93 45.6-6.7 44.9-5.8L44.9-5.8Q42.8-3 39.75-0.5L39.75-0.5Q37.55 1.25 34.85 1.25ZM37.6-23.9L37.6-23.9Q37.65-24 37.73-24.18 37.8-24.35 37.85-24.45L37.85-24.45Q31.6-15.9 27.8-11.25L27.8-11.25 33.05-10.4Q34.45-15.85 37.6-23.9ZM58.35-14.2L58.35-14.2Q59.5-14.2 59.5-12.98 59.5-11.75 58.35-9.6 57.2-7.45 56.65-6.1L56.65-6.1Q55.7-3.8 55.7-2.43 55.7-1.05 56.1-0.6L56.1-0.6Q56.85 0.2 58.15-0.53 59.45-1.25 61.77-3.33 64.1-5.4 65.5-7.4L65.5-7.4Q65.7-7.65 65.97-7.53 66.25-7.4 66.25-7.28 66.25-7.15 66.15-7L66.15-7Q65.4-5.65 63.45-3.55 61.5-1.45 59.7-0.18 57.9 1.1 56.15 1.1L56.15 1.1Q54.45 1.05 53.75 0.33 53.05-0.4 53.05-1.5 53.05-2.6 53.25-3.63 53.45-4.65 54-6L54-6Q54.9-8.15 55.57-9.35 56.25-10.55 56.25-10.93 56.25-11.3 55.85-11.3L55.85-11.3Q55.05-11.3 52.8-9.35L52.8-9.35Q51.25-7.9 48.22-3.88 45.2 0.15 44.8 0.4L44.8 0.4Q43 1.3 42.55 1.3 42.1 1.3 42.1 1.15 42.1 1 42.2 0.73 42.3 0.45 43.17-2 44.05-4.45 45.07-7.38 46.1-10.3 46.32-10.9 46.55-11.5 46.62-11.93 46.7-12.35 46.8-12.65 46.9-12.95 47.17-13.33 47.45-13.7 47.9-13.73 48.35-13.75 49.05-13.63 49.75-13.5 49.75-13L49.75-13Q49.75-12.65 49.2-11.48 48.65-10.3 46.05-3.4L46.05-3.4Q47.85-5.6 50.6-8.47 53.35-11.35 55.25-12.85L55.25-12.85Q57.15-14.2 58.35-14.2ZM69.7-13.85L69.7-13.85Q70.95-13.85 71.2-13.05L71.2-13.05Q71.3-12.6 71.07-12.18 70.85-11.75 70.75-11.5 70.65-11.25 70.6-11.1L70.6-11.1Q70.35-10.6 70.1-10.15L70.1-10.15Q67.25-4.45 67.1-2.9L67.1-2.9Q67.05-2.45 67.05-1.75 67.05-1.05 67.45-0.6L67.45-0.6Q68.15 0.2 69.45-0.5 70.75-1.2 73.07-3.3 75.4-5.4 76.85-7.4L76.85-7.4Q77.05-7.65 77.3-7.53 77.55-7.4 77.55-7.28 77.55-7.15 77.45-7L77.45-7Q76.7-5.65 74.75-3.55L74.75-3.55Q71.55-0.1 69.4 0.7L69.4 0.7Q68.15 1.15 67.3 1.15L67.3 1.15Q65.3 1.15 64.65-0.75L64.65-0.75Q64.55-1.1 64.55-1.6L64.55-1.6Q64.55-3.35 66.15-6.9L66.15-6.9Q65.9-6.35 64.2-4.4L64.2-4.4Q63.75-3.9 63.5-4.4L63.5-4.4Q63.45-4.5 63.45-4.67 63.45-4.85 63.65-5.1L63.65-5.1Q66.1-8.15 67.5-10.25L67.5-10.25Q67.4-10.5 67.6-10.9L67.6-10.9Q68.6-13.7 69.35-13.85L69.35-13.85Q69.5-13.85 69.7-13.85ZM73.65-20.5L73.65-20.5 73.25-18.9Q73.25-18.45 72.6-17.45 71.95-16.45 71.6-16.45L71.6-16.45Q69.45-16.45 69.45-17.5L69.45-17.5Q69.45-17.7 71.6-19.35L71.6-19.35 72.45-20Q73.25-20.7 73.45-20.7 73.65-20.7 73.65-20.5ZM82.74-13L82.74-13Q82.74-12.65 82.19-11.48 81.64-10.3 79.04-3.4L79.04-3.4Q80.84-5.6 83.59-8.5L83.59-8.5Q89.14-14.3 91.24-14.3L91.24-14.3Q91.69-14.3 92.12-14.05 92.54-13.8 92.54-12.93 92.54-12.05 91.99-10.98 91.44-9.9 90.74-8.35 90.04-6.8 89.79-6.4L89.79-6.4Q93.99-10.2 96.14-11.03 98.29-11.85 98.99-11.85 99.69-11.85 99.69-11.35L99.69-11.35Q99.69-11.05 98.94-9.9 98.19-8.75 97.29-6.5 96.39-4.25 96.29-3.35 96.19-2.45 96.19-1.75 96.19-1.05 96.59-0.6L96.59-0.6Q97.34 0.2 98.64-0.5 99.94-1.2 102.27-3.3 104.59-5.4 105.99-7.4L105.99-7.4Q106.19-7.65 106.47-7.53 106.74-7.4 106.74-7.28 106.74-7.15 106.64-7L106.64-7Q105.89-5.65 103.94-3.55L103.94-3.55Q100.74-0.1 98.59 0.7L98.59 0.7Q96.24 1.5 95.19 0.9 94.14 0.3 93.89-0.45 93.64-1.2 93.64-1.95L93.64-1.95Q93.64-4.3 94.57-6.65 95.49-9 96.04-9.85L96.04-9.85Q94.14-9.05 92.79-7.85L92.79-7.85Q90.74-6.05 89.49-4.7L89.49-4.7 88.49-3.6Q88.04-2.5 86.92-2.35 85.79-2.2 85.84-3.1L85.84-3.1Q85.94-4.05 87.69-7.35 89.44-10.65 89.44-11.03 89.44-11.4 89.04-11.4L89.04-11.4Q88.14-11.4 85.79-9.35L85.79-9.35Q84.24-7.9 81.22-3.88 78.19 0.15 77.79 0.4L77.79 0.4Q75.99 1.3 75.54 1.3 75.09 1.3 75.09 1.15 75.09 1 75.24 0.7 75.39 0.4 78.29-8L78.29-8Q77.19-6.3 76.29-5.4L76.29-5.4Q75.89-4.95 75.89-5.58 75.89-6.2 76.24-6.65L76.24-6.65Q78.49-9.6 79.54-11.65L79.54-11.65Q79.84-13.4 80.74-13.7L80.74-13.7Q81.29-13.9 82.02-13.7 82.74-13.5 82.74-13ZM116.94-14.55L116.94-14.55Q119.64-14.55 119.64-11.95L119.64-11.95Q119.64-10.6 118.89-9.75L118.89-9.75Q117.64-7.9 114.84-6.53 112.04-5.15 110.09-5L110.09-5Q109.39-4.95 109.34-5.4L109.34-5.4Q109.29-5.6 109.47-5.65 109.64-5.7 109.74-5.7L109.74-5.7Q110.89-5.8 112.69-6.8L112.69-6.8Q116.04-8.6 117.59-10.5L117.59-10.5Q118.24-11.4 118.24-12.23 118.24-13.05 117.44-13.05L117.44-13.05Q116.79-13.05 115.69-12.5L115.69-12.5Q113.34-11.4 110.74-8.68 108.14-5.95 107.34-3.35L107.34-3.35Q107.09-2.55 107.09-1.78 107.09-1 107.74-0.3 108.39 0.4 109.74 0.4L109.74 0.4Q111.24 0.4 113.19-0.4L113.19-0.4Q118.84-2.7 121.89-7.35L121.89-7.35Q122.19-7.75 122.44-7.5L122.44-7.5Q122.64-7.4 122.64-7.25 122.64-7.1 122.49-6.9L122.49-6.9Q120.99-4.4 118.69-2.45L118.69-2.45Q114.24 1.35 110.04 1.35L110.04 1.35Q106.44 1.35 104.99-0.8L104.99-0.8Q104.44-1.65 104.44-2.85 104.44-4.05 105.09-5.7L105.09-5.7Q106.34-8.55 110.44-11.55 114.54-14.55 116.94-14.55Z" opacity="1" transform="matrix(1,0,0,1,0,0)" fill="#8b3c7f" class="wordmark-text-0" data-fill-palette-color="primary" id="text-0"></path></svg></g></svg></g></svg></g></svg></g><g transform="matrix(1,0,0,1,46.010205761994904,0)"><svg viewBox="0 0 99.97958847601019 74.32239803439805" height="74.32239803439805" width="99.97958847601019"><g><svg xmlns="http://www.w3.org/2000/svg" xmlns:xlink="http://www.w3.org/1999/xlink" version="1.1" x="0" y="0" viewBox="0.7552641445431253 14.348 98.83673845868164 73.47283108602146" enable-background="new 0 0 100 100" xml:space="preserve" height="74.32239803439805" width="99.97958847601019" class="icon-icon-0" data-fill-palette-color="accent" id="icon-0"><g fill="#8b3c7f" data-fill-palette-color="accent"><rect x="61.067" y="48.226" fill="#8b3c7f" width="1.455" height="0.384" data-fill-palette-color="accent"></rect><path fill="#8b3c7f" d="M76.426 45.398c-0.003 0.002-0.005 0.004-0.008 0.006-0.003 0.003-0.008 0.012-0.011 0.015C76.415 45.414 76.418 45.404 76.426 45.398z" data-fill-palette-color="accent"></path><path fill="#8b3c7f" d="M99.349 14.348h-2.467c-0.057 0-0.186 0.08-0.209 0.132l-1.123 2.356h-1.68c-0.043 0-0.174 0.072-0.195 0.109L76.128 45.017l-1.154 0.153c-0.105 0.012-0.203 0.088-0.203 0.229v0.893 1.074c0 0.052-0.029 0.114-0.082 0.154-0.064 0.045-0.27 0.077-0.33 0.054-0.025-0.011-0.051-0.038-0.051-0.088l-0.021-1.966c-0.002-0.158-0.125-0.234-0.241-0.229-0.087 0.008-0.824 0.105-0.824 0.105-0.138 0.018-0.203 0.125-0.201 0.231v1.966c0 0.161-0.106 0.181-0.271 0.203-0.074 0.011-0.195 0.038-0.195-0.083l-0.018-1.955c-0.002-0.167-0.135-0.243-0.26-0.229l-0.81 0.091c-0.147 0.018-0.211 0.125-0.209 0.232l0.012 1.969c0 0.133-0.12 0.182-0.229 0.196-0.114 0.02-0.235 0.041-0.235-0.077l-0.021-1.966c0-0.08-0.025-0.135-0.066-0.173-0.053-0.05-0.129-0.07-0.199-0.061l-0.805 0.121c-0.135 0.02-0.197 0.125-0.193 0.229v1.958c0 0.179-0.193 0.192-0.316 0.209-0.069 0.009-0.149 0.01-0.149-0.09l-0.022-1.964c0-0.168-0.138-0.242-0.263-0.229l-5.231 0.662c-0.316-0.386-0.619-0.77-0.914-1.135-0.982-1.224-1.963-2.406-3.09-2.966v-0.809c0-0.04-0.008-0.073-0.021-0.103-0.012-0.067-0.053-0.13-0.137-0.168-0.543-0.243-1.1-0.463-1.666-0.658v-0.355c0.01-0.108-0.035-0.21-0.158-0.253-0.482-0.169-0.973-0.319-1.473-0.452-0.711-0.189-1.441-0.34-2.18-0.451-0.354-0.831-0.976-0.985-1.822-0.985h-3.799c-0.849 0-1.47 0.153-1.822 0.984-0.74 0.112-1.471 0.263-2.185 0.452-0.5 0.133-0.992 0.283-1.477 0.452-0.121 0.042-0.164 0.145-0.156 0.253v0.355c-0.566 0.195-1.121 0.415-1.664 0.658-0.086 0.038-0.127 0.101-0.137 0.168-0.014 0.03-0.021 0.063-0.021 0.103v0.809c-1.129 0.56-2.109 1.743-3.092 2.966-0.293 0.365-0.598 0.749-0.912 1.135l-5.234-0.662c-0.123-0.013-0.258 0.061-0.26 0.229l-0.025 1.964c0 0.1-0.078 0.099-0.15 0.09-0.123-0.017-0.312-0.03-0.312-0.209V46.09c0.002-0.104-0.061-0.209-0.197-0.229L29.83 45.74c-0.07-0.01-0.145 0.01-0.197 0.061-0.039 0.038-0.066 0.093-0.068 0.173l-0.02 1.966c0 0.118-0.121 0.097-0.236 0.077-0.107-0.014-0.229-0.063-0.229-0.196l0.01-1.969c0.002-0.108-0.061-0.214-0.207-0.232l-0.809-0.091c-0.125-0.014-0.258 0.062-0.26 0.229l-0.02 1.955c0 0.121-0.119 0.094-0.191 0.083-0.162-0.022-0.273-0.042-0.273-0.203v-1.966c0.002-0.107-0.064-0.213-0.203-0.231 0 0-0.732-0.097-0.822-0.105-0.117-0.005-0.24 0.071-0.242 0.229l-0.021 1.966c0 0.051-0.023 0.078-0.053 0.088-0.059 0.023-0.262-0.009-0.328-0.054-0.051-0.04-0.082-0.102-0.082-0.154v-1.074L25.574 45.4c0-0.142-0.096-0.217-0.201-0.229l-1.152-0.153L6.675 16.945c-0.025-0.037-0.154-0.109-0.197-0.109h-1.68L3.675 14.48c-0.023-0.052-0.152-0.132-0.209-0.132H0.997c-0.201 0-0.295 0.149-0.211 0.331l20.17 42.664-4.799-0.573v-0.535c0-0.066-0.061-0.125-0.127-0.127l-2.111-0.023L12.7 54.057c-0.082-0.139-0.234-0.096-0.234 0.064v2.205L10.57 56.1c-0.143-0.019-0.26 0.086-0.26 0.229v0.875c0 0.096 0.098 0.215 0.191 0.23l1.965 0.356v0.43c0 0.05 0.051 0.115 0.1 0.123l0.5 0.105v0.332l9.51 1.983 1.174 2.486-2.115-0.045c-0.316-0.006-0.436 0.098-0.264 0.232l1.473 1.162c0.17 0.131 0.562 0.246 0.879 0.252l0.791 0.016 0.246 0.52-2.127-0.043c-0.312-0.006-0.432 0.098-0.262 0.23l1.473 1.16c0.068 0.053 0.176 0.104 0.299 0.146 0.178 0.06 0.393 0.103 0.58 0.106l0.803 0.015 0.244 0.521-2.135-0.043c-0.314-0.006-0.436 0.098-0.264 0.231l1.475 1.158c0.168 0.135 0.562 0.246 0.879 0.252l0.809 0.019 0.244 0.516-2.143-0.043c-0.316-0.006-0.434 0.098-0.262 0.234l1.471 1.159c0.172 0.134 0.562 0.244 0.879 0.252l0.822 0.017 0.244 0.52-2.155-0.043c-0.314-0.008-0.434 0.098-0.266 0.229l1.477 1.16c0.17 0.135 0.562 0.248 0.879 0.256l0.828 0.017 0.244 0.521-2.16-0.043c-0.318-0.007-0.434 0.096-0.266 0.229l1.475 1.157c0.17 0.136 0.562 0.25 0.879 0.254l0.838 0.021 0.246 0.519-2.172-0.043c-0.316-0.008-0.436 0.096-0.266 0.229l1.473 1.158c0.172 0.135 0.564 0.248 0.881 0.254l0.848 0.019 0.596 1.258 6.65 7.803c0.018 0.023 0.146 0.082 0.176 0.082h3.553c0.123 0 0.23-0.109 0.23-0.23V74.691l-0.014-0.078-0.482-1.303L39.59 68.9V66.88v-2.56l0.307 0.063v2.496 0.271l0.342 0.16 0.031 2.586c-0.008 0.054-0.004 0.107 0.006 0.164 0.012 0.062 0.029 0.111 0.053 0.156l1.803 4.742v6.592c-0.01 0.061-0.01 0.123 0.01 0.191 0.012 0.068 0.039 0.127 0.074 0.176l1.971 4.154c0.029 0.096 0.094 0.186 0.188 0.242 0.09 0.061 0.197 0.08 0.301 0.065l3.549 0.029 0.248 1.069c0.017 0.068 0.047 0.131 0.092 0.187 0.015 0.015 0.027 0.028 0.062 0.06 0.092 0.073 0.207 0.102 0.32 0.096h2.471c0.113 0.01 0.227-0.021 0.318-0.092 0.09-0.072 0.146-0.179 0.166-0.289l0.252-1.029 3.524-0.029c0.104 0.014 0.209-0.006 0.301-0.066 0.093-0.057 0.156-0.146 0.187-0.241l1.975-4.154c0.033-0.049 0.061-0.106 0.074-0.176 0.016-0.068 0.018-0.132 0.008-0.191V74.96l1.799-4.742c0.027-0.045 0.045-0.096 0.055-0.155 0.015-0.058 0.015-0.111 0.008-0.164l0.029-2.586 0.346-0.16v-0.271-2.496l0.304-0.064v2.562 2.021l-1.688 4.41-0.484 1.303-0.014 0.078v11.904c0 0.12 0.108 0.229 0.231 0.229h3.552c0.03 0 0.155-0.06 0.178-0.082l6.649-7.804 0.595-1.258 0.848-0.018c0.316-0.006 0.711-0.119 0.879-0.254l1.475-1.158c0.17-0.135 0.051-0.238-0.264-0.23l-2.172 0.043 0.244-0.518 0.84-0.02c0.316-0.004 0.709-0.119 0.879-0.254l1.473-1.158c0.172-0.135 0.053-0.236-0.264-0.23l-2.162 0.043 0.244-0.52 0.83-0.016c0.314-0.009 0.709-0.121 0.879-0.256l1.473-1.16c0.172-0.131 0.051-0.236-0.264-0.229l-2.152 0.043 0.246-0.521 0.818-0.016c0.316-0.008 0.711-0.119 0.879-0.252l1.475-1.16c0.17-0.137 0.051-0.24-0.266-0.234l-2.141 0.043 0.242-0.516 0.811-0.018c0.314-0.006 0.709-0.117 0.879-0.252l1.475-1.158c0.17-0.135 0.051-0.238-0.266-0.232l-2.135 0.043L74.829 67l0.801-0.014c0.186-0.006 0.402-0.049 0.582-0.107h-0.008c0.125-0.041 0.229-0.094 0.299-0.146l1.475-1.159c0.168-0.134 0.051-0.236-0.266-0.23l-2.123 0.043 0.244-0.52 0.791-0.017c0.313-0.006 0.711-0.121 0.881-0.252l1.475-1.162c0.17-0.135 0.051-0.237-0.268-0.231l-2.115 0.045 1.176-2.485 9.508-1.984v-0.332l0.502-0.105c0.047-0.008 0.103-0.074 0.103-0.123v-0.43l1.965-0.357c0.09-0.016 0.188-0.135 0.188-0.229v-0.875c0-0.144-0.115-0.246-0.26-0.229l-1.894 0.228V54.12c0-0.16-0.156-0.203-0.238-0.063l-1.219 2.026-2.11 0.022c-0.064 0.002-0.123 0.062-0.123 0.127v0.535l-4.802 0.574 20.168-42.664C99.646 14.497 99.55 14.348 99.349 14.348zM95.841 17.3h0.131L76.907 57.643l-0.311 0.035L95.841 17.3zM95.327 17.3L76.052 57.744l-2.342 0.281 7.49-13.131 0.012-1.909 5.857-10.45 0.012-1.908 5.078-8.683 0.012-0.708 2.408-3.936H95.327zM73.653 54.857v-0.142h-0.168V53.03l3.242-0.671-3.242 5.685V56.54h0.176v-0.136L73.653 54.857zM83.604 33.932L83.604 33.932 93.999 17.3h0.361l-2.359 3.86-0.014 0.711-8.384 14.312V33.932zM78.513 47.091v-2.503l0.201-0.002v-0.139l-0.008-0.884v-0.14l-0.193 0.002v-1.348l4.904-7.848v2.296c0 0.116 0.115 0.148 0.174 0.046l3.305-5.643v1.537l-8.383 14.912V47.091zM77.763 43.277l0.562-0.902v4.716 0.629c-0.002 0.021 0 0.039 0.01 0.056 0.012 0.025 0.035 0.041 0.061 0.048 0.023 0.005 0.055 0.002 0.076-0.013l2.555-4.537v1.549l-3.264 5.72V43.277zM74.669 48.014c0.102-0.018 0.193-0.046 0.293-0.121 0.16-0.117 0.273-0.311 0.273-0.527l0.002-1.073v-0.689l1.022-0.136c0.039 0.002 0.08-0.008 0.117-0.028 0.017-0.013 0.028-0.024 0.041-0.036 0.018-0.016 0.032-0.032 0.062-0.08l1.096-1.751v7.295l-0.541 0.952-2.365 0.494V48.014zM68.569 46.456l0.021 1.715c0 0.387 0.321 0.592 0.676 0.546l0.146-0.02c0.317-0.041 0.572-0.326 0.572-0.649v-1.757l0.344-0.051 0.016 1.703c0 0.462 0.393 0.583 0.76 0.536l0.061-0.008c0.318-0.041 0.572-0.328 0.572-0.65l-0.01-1.765 0.352-0.048 0.019 1.708c0 0.424 0.354 0.588 0.715 0.542l0.104-0.013c0.318-0.042 0.574-0.327 0.574-0.65V45.83l0.34-0.043 0.02 1.702c0 0.237 0.137 0.438 0.348 0.52 0.084 0.034 0.17 0.046 0.283 0.032l0.006 4.314-2.238 0.463v-2.002c0-0.062-0.047-0.103-0.106-0.094l-5.323 0.944v-1.6c0.448 0.205 0.93 0.356 1.44 0.433 0.305 0.043 0.373-0.414 0.065-0.46-0.694-0.104-1.334-0.362-1.922-0.72v-2.583h-0.004L68.569 46.456zM73.3 53.07v5.002l-3.275 0.395v-1.35l1.963-0.426v-3.349L73.3 53.07zM66.212 46.761v2.441c-0.865-0.565-1.627-1.338-2.316-2.143L66.212 46.761zM60.706 44c0.512 0.511 1.021 1.129 1.555 1.792 1.219 1.518 2.57 3.291 4.365 4.185v1.72l-5.92 1.051V44zM55.96 40.186c0.432 0.115 0.859 0.245 1.283 0.388v15.66c0 0.312 0.465 0.312 0.465 0V41.289c0.461 0.163 0.914 0.342 1.359 0.538v9.63c0 0.311 0.465 0.311 0.465 0v-8.395c0.336 0.196 0.664 0.454 0.987 0.758v9.036c0 0.062 0.05 0.104 0.107 0.092l11.432-2.023v1.932l-3.514 0.729c-0.089 0.019-0.187 0.138-0.187 0.228v3.569c0 0.099 0.047 0.164 0.107 0.199v1.071l-3.307 0.396v-0.926l0.438-0.092c0.125 0.133 0.404 0.078 0.404-0.162l-0.002-3.473c0-0.16-0.123-0.261-0.279-0.228l-4.863 1.006-0.068 0.029-6.83 3.978-0.004-2.847 2.136-2.039c0.026-0.026 0.073-0.16 0.069-0.198l-1.68-13.345c-0.021-0.17-0.17-0.228-0.295-0.194l-0.023-0.2c-0.028-0.214-0.063-0.406-0.104-0.579C54.702 39.885 55.337 40.02 55.96 40.186zM69.841 57.158v1.33l-1.186 0.143v-1.025c0.092-0.022 0.17-0.098 0.17-0.225L69.841 57.158zM64.976 58.16v0.912l-2.164 0.26v-0.715L64.976 58.16zM62.349 55.344v4.045l-0.6 0.07v-3.992L62.349 55.344zM57.228 62.121c-0.205 0.035-0.381 0.172-0.475 0.348-0.045 0.086-0.074 0.187-0.074 0.287v0.258l-3.178 0.58 0.318-2.715 5.2-0.625 0.005 1.561L57.228 62.121zM59.019 62.002v0.584l-2.154 0.393v-0.223c0-0.066 0.019-0.139 0.054-0.201 0.067-0.125 0.194-0.227 0.342-0.25L59.019 62.002zM54.724 63.844v1.479l-1.57 0.325 0.183-1.553L54.724 63.844zM53.638 60.209v-0.387c0.059 0.02 0.131 0.008 0.211-0.037l0.584-0.346v0.676L53.638 60.209zM54.616 60.09v-0.596l1.672-0.98v1.379L54.616 60.09zM56.472 59.869v-1.518c0-0.035-0.01-0.062-0.027-0.08l4.545-2.646 0.574-0.119v3.977l-1.869 0.226c-0.018-0.11-0.104-0.213-0.254-0.194L56.472 59.869zM55.274 52.9l-0.805 0.707-0.865-10.528 0.375-0.447L55.274 52.9zM46.651 40.418c0.057-0.462 0.146-0.795 0.267-1.037 0.434 0.319 0.942 0.582 1.43 0.789 0.283 0.122 0.467-0.304 0.183-0.426-0.439-0.189-0.802-0.394-1.052-0.55-0.118-0.074-0.213-0.138-0.278-0.183 0.268-0.218 0.621-0.246 1.078-0.246h3.799c0.457 0 0.812 0.028 1.074 0.244-0.064 0.046-0.16 0.11-0.281 0.186-0.25 0.156-0.609 0.361-1.051 0.55-0.283 0.122-0.101 0.548 0.184 0.426 0.486-0.208 0.998-0.472 1.432-0.79 0.121 0.24 0.209 0.575 0.268 1.039l0.234 1.98-0.496 0.591c-0.006 0.007-0.022 0.057-0.021 0.067l0.883 10.749c0.008 0.094 0.084 0.125 0.153 0.062l0.849-0.742 0.065 0.522-2.125 2.029c-0.018 0.016-0.069 0.143-0.069 0.166v4.619l-0.754 6.418-0.031 0.26-2.211 0.601-2.213-0.601-0.029-0.26-0.756-6.418v-4.619c0-0.023-0.053-0.15-0.069-0.166l-2.125-2.029 0.068-0.521 0.842 0.74c0.07 0.062 0.144 0.03 0.15-0.062l0.885-10.749c0-0.01-0.014-0.06-0.021-0.067l-0.506-0.603L46.651 40.418zM52.642 69.202L52.642 69.202v0.122h-0.812v0.26h0.812v0.154h-0.812v0.205 0.258h0.812v1.617c0 0.008 0.016 0.053 0.02 0.061l1.97 2.547 2.2 0.557-0.008 3.938-1.371 4.703h-2.86l0.935-3.836c0.002-0.006 0-0.109-0.002-0.119l-1.253-4.225c-0.021-0.076-0.143-0.168-0.221-0.168H50.18h-1.873c-0.076 0-0.198 0.092-0.224 0.168l-1.247 4.225c-0.003 0.01-0.005 0.113-0.003 0.119l0.935 3.836h-2.874l-1.369-4.703-0.008-3.938 2.203-0.558 1.967-2.547c0.002-0.008 0.02-0.053 0.02-0.062V70.2h0.812v-0.259-0.205h-0.812v-0.153h0.812v-0.26h-0.812v-0.121h0.812v-0.257h-0.812v-0.342h0.959l1.091-0.498 0.358 0.101c0.01 0 0.113 0 0.123 0l0.355-0.101 1.09 0.498h0.959v0.342h-0.812v0.257H52.642zM52.827 71.787v-3.182h4.447l1.438-0.656-0.027 2.01-1.838 4.836-2.092-0.508L52.827 71.787zM43.499 74.795l-1.836-4.836-0.029-2.01 1.441 0.656h4.443v3.182l-1.928 2.5L43.499 74.795zM43.595 62.469c-0.096-0.176-0.268-0.312-0.477-0.348l-1.793-0.307v-1.562l5.204 0.625 0.317 2.715-3.178-0.579v-0.259C43.669 62.654 43.642 62.555 43.595 62.469zM43.482 62.756v0.223l-2.154-0.393v-0.584l1.76 0.303c0.148 0.023 0.273 0.125 0.344 0.25C43.464 62.617 43.482 62.689 43.482 62.756zM40.908 59.512c-0.15-0.018-0.238 0.084-0.256 0.195l-1.871-0.225v-3.978l0.576 0.119 4.547 2.646c-0.018 0.019-0.029 0.045-0.029 0.08l-0.002 1.519L40.908 59.512zM44.062 59.893v-1.379l1.668 0.98v0.596L44.062 59.893zM45.917 60.115v-0.676l0.584 0.346c0.08 0.045 0.154 0.059 0.215 0.035v0.391L45.917 60.115zM45.624 63.844l1.385 0.252 0.184 1.553-1.568-0.325V63.844zM46.743 43.079l-0.867 10.528-0.801-0.703 1.297-10.269L46.743 43.079zM39.827 52.855V43.82c0.322-0.304 0.652-0.562 0.988-0.758v8.395c0 0.311 0.465 0.311 0.465 0v-9.63c0.443-0.195 0.898-0.375 1.357-0.538v14.945c0 0.311 0.467 0.311 0.467 0v-15.66c0.422-0.143 0.848-0.273 1.283-0.388 0.625-0.166 1.26-0.301 1.908-0.406-0.043 0.173-0.078 0.366-0.107 0.58l-0.024 0.202c-0.125-0.036-0.277 0.021-0.299 0.193L44.184 54.1c-0.004 0.039 0.043 0.172 0.07 0.198l2.137 2.039-0.004 2.847-6.83-3.978-0.068-0.029-4.863-1.006c-0.156-0.032-0.281 0.065-0.281 0.228v3.473c0 0.24 0.279 0.295 0.404 0.162l0.438 0.092v0.926l-3.307-0.396V57.58c0.062-0.035 0.105-0.102 0.105-0.199v-3.57c0-0.09-0.094-0.209-0.184-0.227l-3.514-0.729v-1.933l11.43 2.022C39.779 52.961 39.827 52.918 39.827 52.855zM38.597 59.459l-0.598-0.07v-4.045l0.596 0.123L38.597 59.459zM37.534 58.617v0.715l-2.162-0.26V58.16L37.534 58.617zM31.695 57.605v1.024l-1.186-0.144v-1.329l1.014 0.223C31.522 57.508 31.601 57.582 31.695 57.605zM30.322 57.117v1.35l-3.273-0.395V53.07l1.311 0.272v3.349L30.322 57.117zM38.087 45.792C38.62 45.128 39.128 44.51 39.64 44v8.748l-5.92-1.051v-1.72C35.515 49.083 36.865 47.31 38.087 45.792zM34.136 46.761l2.316 0.298c-0.689 0.804-1.451 1.577-2.316 2.143V46.761zM25.87 48.04c0.111 0.015 0.201 0.002 0.283-0.032 0.213-0.082 0.348-0.282 0.348-0.52l0.02-1.702 0.344 0.043v1.764c0 0.323 0.252 0.609 0.572 0.65l0.104 0.013c0.359 0.046 0.715-0.117 0.715-0.542l0.016-1.708 0.352 0.048-0.01 1.765c0 0.323 0.254 0.61 0.574 0.65l0.059 0.008c0.369 0.047 0.76-0.073 0.76-0.536l0.018-1.703 0.344 0.051v1.757c0 0.323 0.252 0.608 0.572 0.649l0.145 0.02c0.352 0.046 0.672-0.159 0.672-0.546l0.02-1.715 2.174 0.281v2.582c-0.588 0.358-1.227 0.617-1.922 0.72-0.305 0.046-0.236 0.504 0.068 0.46 0.512-0.077 0.99-0.229 1.441-0.433v1.6l-5.322-0.945c-0.064-0.008-0.111 0.031-0.111 0.094v2.002l-2.238-0.463L25.87 48.04zM26.863 56.542v1.503l-3.244-5.684 3.244 0.67v1.686h-0.17v0.141l-0.006 1.548-0.002 0.137H26.863zM22.77 43.574L22.77 43.574l1.095 1.751c0.035 0.057 0.053 0.078 0.074 0.095-0.008-0.006-0.01-0.015-0.016-0.021 0.012 0.013 0.027 0.027 0.047 0.042 0.033 0.019 0.069 0.025 0.104 0.025-0.014-0.002-0.027-0.005-0.042-0.007 0.006 0 0.012 0.003 0.02 0.004l0.025 0.003c0.003 0 0.006 0.002 0.01 0.002l1.025 0.136v0.689 1.073c0 0.216 0.113 0.41 0.271 0.527 0.1 0.075 0.193 0.104 0.295 0.121v4.299l-2.367-0.494-0.541-0.95V43.574zM21.95 47.824c0.025-0.007 0.049-0.022 0.061-0.048 0.008-0.017 0.014-0.036 0.008-0.056v-0.629-4.716l0.564 0.902v7.266l-3.262-5.72v-1.549l2.553 4.537C21.897 47.826 21.925 47.829 21.95 47.824zM16.927 36.526V34.23l4.91 7.848v1.348l-0.195-0.002-0.002 0.14-0.008 0.884-0.002 0.139 0.207 0.002v2.503 0.288L13.45 32.468V30.93l3.305 5.643C16.816 36.674 16.927 36.642 16.927 36.526zM6.349 17.3l10.393 16.632v2.251L8.361 21.871 8.345 21.16 5.986 17.3H6.349zM5.769 17.3l2.404 3.936 0.014 0.708 5.076 8.683 0.014 1.908 5.857 10.45 0.014 1.909 7.49 13.131-2.342-0.281L5.019 17.3H5.769zM4.507 17.3L23.75 57.677l-0.311-0.034L4.374 17.3H4.507zM1.365 14.812H3.32l0.965 2.024H4.009c-0.203 0-0.297 0.149-0.209 0.331l19.1 40.41-1.408-0.17L1.365 14.812zM12.72 54.576l1.018 1.697c0.016 0.021 0.084 0.061 0.107 0.061l2.055 0.023v0.381l-3.18-0.383V54.576zM10.775 57.01v-0.42l8.311 0.994v0.945L10.775 57.01zM12.72 58.115v-0.279l3.18 0.582v0.361L12.72 58.115zM19.236 59.807l-5.914-1.233V58.5l2.68 0.561c0.088 0.021 0.156-0.037 0.156-0.125v-0.475l3.078 0.564V59.807zM19.272 57.609l21.869 2.621v2.321l-21.869-3.989V57.609zM31.277 61.223v0.451c-0.729-0.131-5.068-0.916-11.855-2.332v-0.283L31.277 61.223zM38.101 86.361l-6.562-7.699-5.566-11.781-2.482-5.248 1.475 0.309 2.336 4.939 6.875 14.549 4.207 4.932H38.101zM34.4 66.881l0.145 0.775c0.006 0.035 0.055 0.072 0.092 0.072h0.566l0.092 0.473c0.008 0.055 0.047 0.076 0.09 0.076h2.15v2.375h-3.482l-2.148-3.771-0.424-0.74-2.059-3.617 4.332 0.908L34.4 66.881zM33.95 63.473l1.236 0.258v3.15 0.664h-0.472l-0.125-0.664L33.95 63.473zM31.21 72.252l-2.137-4.49h1.91l1.713 3.029c0.01 0.018 0.061 0.047 0.082 0.047h1.221 3.535l0.006 1.438h-0.006L31.21 72.252zM37.534 72.555v4.193h-4.18l-2.012-4.219L37.534 72.555zM28.984 67.578l-0.334-0.697-0.279-0.592h2.98l0.338 0.592 2.152 3.771h-1.01l-1.715-3.027c-0.012-0.018-0.062-0.047-0.08-0.047H28.984zM37.535 68.092L37.535 68.092h-2.073l-0.07-0.363h2.143V68.092zM37.534 66.881v0.664h-2.162v-0.664-3.109l2.162 0.453V66.881zM31.245 66.105H28.28l-2.021-4.244 2.914 0.611L31.245 66.105zM28.138 66.881l4.861 10.199c0.023 0.051 0.15 0.133 0.209 0.133h3.785v0.98h-0.549-0.957l-0.957 1.658 0.957 1.659h0.852v1.738l-1.789-2.101-6.744-14.27-2.277-4.822 0.346 0.074L28.138 66.881zM37.294 78.377l0.854 1.475-0.854 1.474h-0.85H35.59l-0.85-1.474 0.85-1.475h0.854H37.294zM39.286 81.023h-0.152v0.135 5.203h-0.145l-2.463-2.891v-1.96h0.875l0.957-1.659-0.957-1.658h-0.225v-0.98h0.592c0.121 0 0.23-0.109 0.23-0.23v-0.176h0.26V76.67v-5.154-0.141h-0.26v-4.494-2.895l0.602 0.125v2.77l0.002 2.766 0.684 1.789V81.023zM40.845 73.475l0.469 1.26v11.627h-1.84l-0.008-14.977-0.686-1.787v-2.717-2.729l0.346 0.072v2.655 2.063l0.014 0.084L40.845 73.475zM19.421 59.846v-0.313c7.445 1.555 12.039 2.366 12.039 2.366v-0.643l13.979 2.553v1.476l-1.029-0.216 0.008-0.409-3.268-0.652-0.01 0.382L19.421 59.846zM47.106 66.881l0.373 0.117 0.041 0.352c0.01 0.064 0.107 0.18 0.17 0.195l0.338 0.094-0.123 0.217h-4.917l-0.779-0.975-1.648-2.059L47.106 66.881zM43.036 74.756l0.012 0.055-0.02-0.098-1.834-4.824-0.021-2.152 0.275 0.128 0.035 2.146 1.854 4.883 0.004 4.064 1.359 4.666h-0.186l-1.459-3.02v-5.732L43.036 74.756zM44.919 85.459l-1.863-3.924v-0.291l1.248 2.578c0.014 0.031 0.09 0.08 0.125 0.08h0.646l0.457 1.561L44.919 85.459zM45.726 85.465l-0.457-1.562h2.566l0.387 1.582L45.726 85.465zM50.921 84.223h-1.459v-0.385h1.459V84.223zM50.921 83.096h-1.459v-0.385h1.459V83.096zM50.921 81.969h-1.459v-0.383h1.459V81.969zM50.921 80.84h-1.459v-0.383h1.459V80.84zM51.255 87.135h-0.143v-7.006c0-0.104-0.082-0.184-0.187-0.184h-1.47c-0.104 0-0.188 0.08-0.188 0.184v7.006h-0.17l-1.803-7.395 1.182-4h1.699 1.699l1.182 4L51.255 87.135zM52.134 85.49l0.387-1.588h2.557l-0.455 1.562L52.134 85.49zM57.288 81.535l-1.863 3.924-0.609 0.004 0.455-1.561h0.648c0.033 0 0.109-0.049 0.123-0.08l1.246-2.578V81.535zM59.149 69.889l-1.838 4.867-0.02 0.115-0.002 5.732-1.461 3.02h-0.185l1.359-4.666 0.006-4.064 1.854-4.883 0.032-2.146 0.277-0.128L59.149 69.889zM58.138 66.881l-0.779 0.975h-4.916l-0.123-0.217 0.342-0.094c0.062-0.016 0.16-0.131 0.168-0.195l0.039-0.352 0.371-0.117 6.549-2.059L58.138 66.881zM60.872 86.361h-1.84V74.734l0.471-1.26 1.703-4.445 0.014-0.084v-2.064-2.656l0.344-0.072v2.729V69.6l-0.684 1.786L60.872 86.361zM61.212 86.359v-5.201-0.135h-0.154v-9.588l0.686-1.789V66.88l0.002-2.771 0.604-0.125v2.896 4.494h-0.26v0.142 5.153 0.138h0.26v0.176c0 0.121 0.108 0.229 0.229 0.229h0.591v0.979h-0.224l-0.959 1.658 0.959 1.66h0.875v1.959l-2.465 2.891H61.212zM65.71 67.729c0.039 0 0.086-0.037 0.094-0.072l0.145-0.775 0.646-3.449 4.334-0.908-2.062 3.617-0.42 0.74-2.15 3.771h-3.482v-2.375h2.15c0.041 0 0.08-0.021 0.092-0.076l0.088-0.473H65.71zM65.161 67.545v-0.664-3.15l1.235-0.258-0.639 3.408-0.125 0.664H65.161zM64.01 81.512h0.853l0.957-1.66-0.957-1.658h-0.959-0.547v-0.979h3.781c0.061 0 0.186-0.082 0.211-0.133l4.861-10.199 2.264-4.748 0.346-0.073-2.276 4.821-6.744 14.271-1.789 2.1V81.512zM63.903 81.324h-0.852l-0.85-1.473 0.85-1.476h0.852 0.851l0.852 1.476-0.852 1.473H63.903zM62.812 76.749L62.812 76.749v-4.194l6.191-0.024-2.012 4.219H62.812zM71.364 67.578h-2.053c-0.02 0-0.07 0.029-0.082 0.047l-1.715 3.027h-1.008l2.152-3.771 0.336-0.592h2.981l-0.28 0.592L71.364 67.578zM72.065 66.105h-2.963l2.068-3.633 2.916-0.611L72.065 66.105zM64.976 66.881v0.664h-2.164v-0.664-2.656l2.164-0.453V66.881zM64.954 67.729l-0.066 0.363h-2.076v-0.363H64.954zM66.347 70.837L66.347 70.837l1.223 0.001c0.021 0 0.07-0.029 0.08-0.047l1.717-3.029h1.908l-2.139 4.49-6.33 0.023 0.006-1.438H66.347zM74.376 66.881l-5.568 11.781-6.561 7.699h-0.281l4.205-4.932 6.877-14.55 2.336-4.938 1.473-0.31L74.376 66.881zM80.925 59.846l-21.723 4.541-0.006-0.381-3.271 0.652 0.012 0.41-1.028 0.215v-1.475l13.977-2.554v0.644c0 0 4.596-0.812 12.039-2.367V59.846zM80.925 59.342c-6.787 1.416-11.125 2.201-11.852 2.332v-0.451l11.852-2.164V59.342zM87.63 58.115l-3.184 0.664v-0.361l3.184-0.582V58.115zM84.446 56.357l2.056-0.023c0.024 0 0.096-0.039 0.108-0.061l1.021-1.697v1.779l-3.185 0.383V56.357zM81.261 57.584l8.312-0.994v0.42l-8.312 1.521V57.584zM81.112 59.025l3.08-0.564v0.475c0 0.088 0.066 0.146 0.15 0.125l2.684-0.561v0.072l-5.914 1.234V59.025zM81.075 57.609v0.953l-21.869 3.989V60.23L81.075 57.609zM78.853 57.406l-1.406 0.17 19.104-40.41c0.086-0.182-0.011-0.331-0.211-0.331h-0.277l0.966-2.024h1.955L78.853 57.406z" data-fill-palette-color="accent"></path><rect x="61.067" y="51.611" fill="#8b3c7f" width="1.455" height="0.383" data-fill-palette-color="accent"></rect><path fill="#8b3c7f" d="M76.296 45.463c0.006-0.001 0.01-0.004 0.018-0.004-0.016 0.002-0.031 0.006-0.053 0.009L76.296 45.463z" data-fill-palette-color="accent"></path><rect x="61.067" y="49.354" fill="#8b3c7f" width="1.455" height="0.384" data-fill-palette-color="accent"></rect><rect x="61.067" y="50.481" fill="#8b3c7f" width="1.455" height="0.384" data-fill-palette-color="accent"></rect><rect x="37.822" y="49.354" fill="#8b3c7f" width="1.459" height="0.384" data-fill-palette-color="accent"></rect><rect x="37.822" y="50.481" fill="#8b3c7f" width="1.459" height="0.384" data-fill-palette-color="accent"></rect><path fill="#8b3c7f" d="M65.526 74.523v1.535c0 0.311 0.465 0.311 0.465 0v-1.535C65.991 74.215 65.526 74.215 65.526 74.523z" data-fill-palette-color="accent"></path><rect x="37.822" y="51.611" fill="#8b3c7f" width="1.459" height="0.383" data-fill-palette-color="accent"></rect><path fill="#8b3c7f" d="M48.483 76.041l0.705 3.58c0.027 0.121 0.207 0.086 0.184-0.035l-0.704-3.58C48.644 75.883 48.462 75.92 48.483 76.041z" data-fill-palette-color="accent"></path><rect x="37.822" y="48.226" fill="#8b3c7f" width="1.459" height="0.384" data-fill-palette-color="accent"></rect><path fill="#8b3c7f" d="M36.05 76.059v-1.535c0-0.309-0.463-0.309-0.463 0v1.535C35.587 76.369 36.05 76.369 36.05 76.059z" data-fill-palette-color="accent"></path><path fill="#8b3c7f" d="M36.675 76.059v-1.535c0-0.309-0.461-0.309-0.461 0v1.535C36.214 76.369 36.675 76.369 36.675 76.059z" data-fill-palette-color="accent"></path><path fill="#8b3c7f" d="M35.435 76.059v-1.535c0-0.309-0.463-0.309-0.463 0v1.535C34.972 76.369 35.435 76.369 35.435 76.059z" data-fill-palette-color="accent"></path><path fill="#8b3c7f" d="M34.822 76.059v-1.535c0-0.309-0.465-0.309-0.465 0v1.535C34.357 76.369 34.822 76.369 34.822 76.059z" data-fill-palette-color="accent"></path><path fill="#8b3c7f" d="M51.688 76.006l-0.705 3.58c-0.022 0.121 0.158 0.156 0.18 0.035l0.707-3.58C51.894 75.92 51.71 75.883 51.688 76.006z" data-fill-palette-color="accent"></path><path fill="#8b3c7f" d="M64.298 74.523v1.535c0 0.311 0.467 0.311 0.467 0v-1.535C64.765 74.215 64.298 74.215 64.298 74.523z" data-fill-palette-color="accent"></path><path fill="#8b3c7f" d="M63.673 74.523v1.535c0 0.311 0.461 0.311 0.461 0v-1.535C64.134 74.215 63.673 74.215 63.673 74.523z" data-fill-palette-color="accent"></path><path fill="#8b3c7f" d="M48.134 67.012l2.039 0.549 2.057-0.549 0.012-0.131 0.445-4.982h-5.008l0.443 4.982L48.134 67.012zM51.755 62.945l-0.059 0.623h-2.396l0.062 0.645h2.284l-0.18 1.93-1.287 0.354-1.285-0.354-0.088-1.014h0.631l0.052 0.516 0.69 0.201 0.705-0.201 0.067-0.812h-2.168l-0.168-1.888H51.755z" data-fill-palette-color="accent"></path><path fill="#8b3c7f" d="M64.913 74.523v1.535c0 0.311 0.461 0.311 0.461 0v-1.535C65.374 74.215 64.913 74.215 64.913 74.523z" data-fill-palette-color="accent"></path><path fill="#8b3c7f" d="M50.065 54.686h0.301c0.515 0 0.929-0.414 0.929-0.928v-12.8c0-0.512-0.414-0.928-0.929-0.928h-0.301c-0.514 0-0.928 0.416-0.928 0.928v12.8C49.138 54.271 49.552 54.686 50.065 54.686z" data-fill-palette-color="accent"></path><path fill="#8b3c7f" d="M49.688 59.531v1.59c0 0.32 0.48 0.32 0.48 0v-1.59C50.169 59.211 49.688 59.211 49.688 59.531z" data-fill-palette-color="accent"></path><path fill="#8b3c7f" d="M48.884 61.121v-1.59c0-0.32-0.48-0.32-0.48 0v1.59C48.403 61.441 48.884 61.441 48.884 61.121z" data-fill-palette-color="accent"></path><path fill="#8b3c7f" d="M48.249 61.121v-1.59c0-0.32-0.48-0.32-0.48 0v1.59C47.769 61.441 48.249 61.441 48.249 61.121z" data-fill-palette-color="accent"></path><path fill="#8b3c7f" d="M49.519 61.121v-1.59c0-0.32-0.479-0.32-0.479 0v1.59C49.04 61.441 49.519 61.441 49.519 61.121z" data-fill-palette-color="accent"></path></g></svg></g></svg></g><g></g></svg></g></svg></g></svg></g></svg></g><defs></defs></svg><rect width="320" height="360" fill="none" stroke="none" visibility="hidden"></rect></g></svg></g></svg>